<svg width="146" height="32" viewBox="0 0 146 32" fill="none" xmlns="http://www.w3.org/2000/svg">
<path d="M14.626 9.94598C19.0055 11.4917 23.7285 11.4058 28.0651 9.73131C28.108 7.97092 27.6357 6.21053 26.8199 4.62189L26.3906 3.76316C26.2618 3.8061 26.09 3.89198 26.0041 3.97785C22.054 5.86705 17.5886 6.12466 13.4238 4.62189C10.5042 3.59142 7.32687 3.84904 4.57895 5.223L3.72023 5.65236C3.76316 5.78117 3.84904 5.95291 3.93492 6.03878C4.45015 7.15513 4.87951 8.35735 5.18006 9.6025C8.1856 8.74377 11.5346 8.82964 14.626 9.94598Z" fill="#3B82F6"/>
<path d="M3.93493 22.8698L4.87952 22.3546C6.7935 21.3976 8.90498 20.9343 11 20.9954C12.2888 21.033 13.5713 21.269 14.7978 21.7105C15.1973 21.8523 15.5981 21.9824 16 22.1011V26.6777C14.3376 26.3686 12.6547 26.3245 11 26.5375C9.28349 26.7585 7.59733 27.2562 5.99586 28.0221C5.90999 28.108 5.73824 28.1939 5.60943 28.2368L5.18007 27.3781C4.45015 25.9612 4.0208 24.4155 3.93493 22.8698Z" fill="#3B82F6"/>
<path d="M4.45014 18.9197C8.09972 17.4169 12.1787 17.2881 15.9141 18.6191C19.349 19.8213 22.9986 20.036 26.4335 19.2632C26.3906 17.331 26.6482 15.4418 27.3352 13.5526C22.8269 14.8836 17.9751 14.7548 13.4668 13.1662C10.8906 12.2216 8.05679 12.2216 5.48061 13.0803C5.52355 14.9266 5.18007 16.8158 4.53603 18.662C4.53603 18.662 4.49308 18.7909 4.45014 18.9197Z" fill="#3B82F6"/>
<path d="M51.356 9.31L46.982 22H42.464L38.072 9.31H41.852L44.732 18.472L47.594 9.31H51.356ZM57.1533 22.126C56.1453 22.126 55.2393 21.916 54.4353 21.496C53.6433 21.076 53.0193 20.476 52.5633 19.696C52.1073 18.916 51.8793 17.998 51.8793 16.942C51.8793 15.898 52.1073 14.986 52.5633 14.206C53.0313 13.426 53.6613 12.826 54.4533 12.406C55.2573 11.986 56.1633 11.776 57.1713 11.776C58.1793 11.776 59.0793 11.986 59.8713 12.406C60.6753 12.826 61.3053 13.426 61.7613 14.206C62.2293 14.986 62.4633 15.898 62.4633 16.942C62.4633 17.986 62.2293 18.904 61.7613 19.696C61.3053 20.476 60.6753 21.076 59.8713 21.496C59.0673 21.916 58.1613 22.126 57.1533 22.126ZM57.1533 19.066C57.6453 19.066 58.0533 18.886 58.3773 18.526C58.7133 18.154 58.8813 17.626 58.8813 16.942C58.8813 16.258 58.7133 15.736 58.3773 15.376C58.0533 15.016 57.6513 14.836 57.1713 14.836C56.6913 14.836 56.2893 15.016 55.9653 15.376C55.6413 15.736 55.4793 16.258 55.4793 16.942C55.4793 17.638 55.6353 18.166 55.9473 18.526C56.2593 18.886 56.6613 19.066 57.1533 19.066ZM67.4266 8.68V22H63.8986V8.68H67.4266ZM79.7677 11.902V22H76.2217V20.56C75.9217 21.016 75.5077 21.388 74.9797 21.676C74.4517 21.952 73.8457 22.09 73.1617 22.09C71.9857 22.09 71.0557 21.706 70.3717 20.938C69.6997 20.158 69.3637 19.102 69.3637 17.77V11.902H72.8737V17.32C72.8737 17.896 73.0237 18.352 73.3237 18.688C73.6357 19.012 74.0437 19.174 74.5477 19.174C75.0637 19.174 75.4717 19.012 75.7717 18.688C76.0717 18.352 76.2217 17.896 76.2217 17.32V11.902H79.7677ZM88.3816 11.812C89.5456 11.812 90.4696 12.202 91.1536 12.982C91.8376 13.75 92.1796 14.794 92.1796 16.114V22H88.6516V16.582C88.6516 16.006 88.5016 15.556 88.2016 15.232C87.9016 14.896 87.4996 14.728 86.9956 14.728C86.4676 14.728 86.0536 14.896 85.7536 15.232C85.4536 15.556 85.3036 16.006 85.3036 16.582V22H81.7756V11.902H85.3036V13.342C85.6156 12.886 86.0356 12.52 86.5636 12.244C87.0916 11.956 87.6976 11.812 88.3816 11.812ZM100.073 18.994V22H98.5434C95.9634 22 94.6734 20.722 94.6734 18.166V14.836H93.4314V11.902H94.6734V9.454H98.2194V11.902H100.055V14.836H98.2194V18.22C98.2194 18.496 98.2794 18.694 98.3994 18.814C98.5314 18.934 98.7474 18.994 99.0474 18.994H100.073ZM101.116 16.942C101.116 15.898 101.302 14.986 101.674 14.206C102.058 13.426 102.574 12.826 103.222 12.406C103.882 11.986 104.614 11.776 105.418 11.776C106.114 11.776 106.714 11.914 107.218 12.19C107.722 12.466 108.112 12.838 108.388 13.306V11.902H111.916V22H108.388V20.596C108.112 21.064 107.716 21.436 107.2 21.712C106.696 21.988 106.102 22.126 105.418 22.126C104.614 22.126 103.882 21.916 103.222 21.496C102.574 21.076 102.058 20.476 101.674 19.696C101.302 18.904 101.116 17.986 101.116 16.942ZM108.388 16.942C108.388 16.294 108.208 15.784 107.848 15.412C107.5 15.04 107.068 14.854 106.552 14.854C106.024 14.854 105.586 15.04 105.238 15.412C104.89 15.772 104.716 16.282 104.716 16.942C104.716 17.59 104.89 18.106 105.238 18.49C105.586 18.862 106.024 19.048 106.552 19.048C107.068 19.048 107.5 18.862 107.848 18.49C108.208 18.118 108.388 17.602 108.388 16.942ZM117.454 13.684C117.85 13.108 118.33 12.652 118.894 12.316C119.458 11.98 120.064 11.812 120.712 11.812V15.574H119.722C118.954 15.574 118.384 15.724 118.012 16.024C117.64 16.324 117.454 16.846 117.454 17.59V22H113.926V11.902H117.454V13.684ZM123.759 10.966C123.135 10.966 122.631 10.798 122.247 10.462C121.875 10.114 121.689 9.682 121.689 9.166C121.689 8.638 121.875 8.2 122.247 7.852C122.631 7.504 123.135 7.33 123.759 7.33C124.371 7.33 124.863 7.504 125.235 7.852C125.619 8.2 125.811 8.638 125.811 9.166C125.811 9.682 125.619 10.114 125.235 10.462C124.863 10.798 124.371 10.966 123.759 10.966ZM125.505 11.902V22H121.977V11.902H125.505ZM132.968 14.836H131.384V22H127.838V14.836H126.74V11.902H127.838V11.812C127.838 10.516 128.216 9.526 128.972 8.842C129.74 8.146 130.838 7.798 132.266 7.798C132.554 7.798 132.776 7.804 132.932 7.816V10.822C132.836 10.81 132.704 10.804 132.536 10.804C132.152 10.804 131.87 10.894 131.69 11.074C131.51 11.242 131.408 11.518 131.384 11.902H132.968V14.836ZM145.101 11.902L138.693 26.806H134.859L137.271 21.568L133.131 11.902H137.055L139.179 17.626L141.231 11.902H145.101Z" fill="#556987"/>
</svg>
